<svg width="32" height="32" viewBox="0 0 32 32" fill="none" xmlns="http://www.w3.org/2000/svg">
<path d="M16 4C17.1046 4 18 4.89543 18 6C18 6.10172 17.9893 6.20119 17.9746 6.29883L25.2734 12.1377C25.4988 12.0497 25.7435 12 26 12C27.1046 12 28 12.8954 28 14C28 15.0171 27.2404 15.8538 26.2578 15.9805L22.5879 24.7881C22.8451 25.1246 23 25.5437 23 26C23 27.1046 22.1046 28 21 28C20.2601 28 19.6155 27.5973 19.2695 27H12.7305C12.3845 27.5973 11.7399 28 11 28C9.89543 28 9 27.1046 9 26C9 25.5439 9.1541 25.1245 9.41113 24.7881L5.74219 15.9805C4.75958 15.8538 4 15.0171 4 14C4 12.8954 4.89543 12 6 12C6.25619 12 6.50046 12.0499 6.72559 12.1377L14.0244 6.29883C14.0098 6.20124 14 6.10167 14 6C14 4.89543 14.8954 4 16 4ZM11.2578 24.0186C11.8882 24.0998 12.4254 24.4733 12.7305 25H18.1484L8.4248 17.2217L11.2578 24.0186ZM16.7266 7.86133C16.5011 7.9494 16.2566 8 16 8C15.743 8 15.4981 7.94961 15.2725 7.86133L7.97461 13.6992C7.98945 13.7975 8 13.8976 8 14C8 14.1014 7.98917 14.2005 7.97461 14.2979L20.2734 24.1377C20.4217 24.0798 20.5782 24.0396 20.7412 24.0186L24.4111 15.2109C24.1544 14.8746 24 14.4558 24 14C24 13.898 24.0097 13.7981 24.0244 13.7002L16.7266 7.86133Z" fill="white"/>
</svg>
