<svg width="24" height="24" viewBox="0 0 24 24" fill="none" xmlns="http://www.w3.org/2000/svg">
	<path d="M14 2.25C14.9665 2.25 15.75 3.0335 15.75 4V5.25H20C20.4142 5.25 20.75 5.58579 20.75 6C20.75 6.41421 20.4142 6.75 20 6.75H19.6562L17.8594 20.2314C17.7434 21.1008 17.0011 21.75 16.124 21.75H7.87598C6.99892 21.75 6.2566 21.1008 6.14062 20.2314L4.34375 6.75H4C3.58579 6.75 3.25 6.41421 3.25 6C3.25 5.58579 3.58579 5.25 4 5.25H8.25V4C8.25 3.0335 9.0335 2.25 10 2.25H14ZM7.62793 20.0332C7.64457 20.1573 7.75074 20.25 7.87598 20.25H16.124C16.2493 20.25 16.3554 20.1573 16.3721 20.0332L18.1436 6.75H5.85645L7.62793 20.0332ZM8.41699 8.25488C8.8286 8.20915 9.19927 8.50542 9.24512 8.91699L10.2451 17.917C10.2909 18.3286 9.99458 18.6993 9.58301 18.7451C9.1714 18.7908 8.80073 18.4946 8.75488 18.083L7.75488 9.08301C7.70915 8.6714 8.00543 8.30074 8.41699 8.25488ZM12 8.25C12.4142 8.25 12.75 8.58579 12.75 9V18C12.75 18.4142 12.4142 18.75 12 18.75C11.5858 18.75 11.25 18.4142 11.25 18V9C11.25 8.58579 11.5858 8.25 12 8.25ZM15.583 8.25488C15.9946 8.30073 16.2909 8.6714 16.2451 9.08301L15.2451 18.083C15.1993 18.4946 14.8286 18.7909 14.417 18.7451C14.0054 18.6993 13.7091 18.3286 13.7549 17.917L14.7549 8.91699C14.8007 8.50542 15.1714 8.20915 15.583 8.25488ZM10 3.75C9.86193 3.75 9.75 3.86193 9.75 4V5.25H14.25V4C14.25 3.86193 14.1381 3.75 14 3.75H10Z" fill="black"/>
</svg>


