<svg width="24" height="24" viewBox="0 0 24 24" fill="none" xmlns="http://www.w3.org/2000/svg">
	<path d="M7.00003 7.99998L7.92898 20.0767C7.96905 20.5977 8.4035 21 8.92603 21L15.074 21C15.5965 21 16.0309 20.5977 16.071 20.0767L17 7.99998M7.00003 7.99998L6 7.99998M7.00003 7.99998L10 7.99998M17 7.99998L18 7.99998M17 7.99998L14 7.99998M14 7.99998L10 7.99998M14 7.99998L14 7.00001C14 6.44772 13.5523 6 13 6.00001L11 6.00002C10.4477 6.00002 10 6.44774 10 7.00002L10 7.99998M9.5 11L10 18M12 11L12 18M14 18L14.5 11" stroke="white" stroke-linecap="round"/>
</svg>
