<svg width="32" height="32" viewBox="0 0 32 32" fill="none" xmlns="http://www.w3.org/2000/svg">
<path d="M20 4C21.1046 4 22 4.89543 22 6C22 6.88163 21.4287 7.62737 20.6367 7.89355C20.6323 7.92133 20.6296 7.94957 20.624 7.97754L19.3184 14.499C19.7353 14.8656 20 15.4012 20 16C20 16.2666 19.9462 16.5204 19.8516 16.7529L24.6133 22.874C24.651 22.9225 24.6853 22.9724 24.7178 23.0225C24.8101 23.0094 24.9041 23 25 23C26.1046 23 27 23.8954 27 25C27 26.1046 26.1046 27 25 27C24.2941 27 23.6753 26.6333 23.3193 26.0811C23.2605 26.0892 23.2007 26.0964 23.1396 26.0996L7.78027 26.9072C7.44938 27.5552 6.77754 28 6 28C4.89543 28 4 27.1046 4 26C4 25.213 4.45526 24.5334 5.11621 24.207L5.88672 12.6611C5.3521 12.3021 5 11.6924 5 11C5 9.89543 5.89543 9 7 9C7.47589 9 7.91249 9.1668 8.25586 9.44434L17.9453 5.71875C17.9722 5.7084 17.9994 5.69955 18.0264 5.69043C18.1753 4.73305 19.0009 4 20 4ZM8.95117 24.8428L23.0352 24.1025L18.2715 17.9785C18.1826 17.9906 18.0922 18 18 18C17.7577 18 17.5265 17.954 17.3115 17.875L8.95117 24.8428ZM8.97266 11.3125C8.87015 11.9647 8.45398 12.5099 7.88184 12.792L7.15234 23.7363L16.0303 16.3369C16.0117 16.2273 16 16.1149 16 16C16 15.12 16.5687 14.3739 17.3584 14.1064L18.6631 7.58594L8.97266 11.3125Z" fill="white"/>
</svg>
