<svg width="24" height="24" viewBox="0 0 24 24" fill="none" xmlns="http://www.w3.org/2000/svg">
	<path d="M12.1719 2.25C12.9011 2.25008 13.6006 2.54001 14.1162 3.05566L17.9443 6.88379C18.46 7.39944 18.7499 8.09889 18.75 8.82812V19C18.75 20.5188 17.5188 21.75 16 21.75H8C6.48122 21.75 5.25 20.5188 5.25 19V5C5.25 3.48122 6.48122 2.25 8 2.25H12.1719ZM8 3.75C7.30964 3.75 6.75 4.30964 6.75 5V19C6.75 19.6904 7.30964 20.25 8 20.25H16C16.6904 20.25 17.25 19.6904 17.25 19V8.82812C17.25 8.80196 17.2477 8.77597 17.2461 8.75H15C13.4812 8.75 12.25 7.51878 12.25 6V3.75293C12.2241 3.7513 12.198 3.75001 12.1719 3.75H8ZM12.043 10.752C12.0521 10.7525 12.0612 10.7521 12.0703 10.7529C12.0722 10.7531 12.0742 10.7527 12.0762 10.7529C12.0837 10.7537 12.0911 10.7558 12.0986 10.7568C12.1225 10.76 12.1458 10.7652 12.1689 10.7705C12.1852 10.7743 12.2017 10.7774 12.2178 10.7822C12.2309 10.7862 12.2429 10.7932 12.2559 10.7979C12.277 10.8056 12.2981 10.8127 12.3184 10.8223C12.3277 10.8267 12.3375 10.8302 12.3467 10.835C12.3549 10.8393 12.363 10.844 12.3711 10.8486C12.4047 10.8678 12.4376 10.8891 12.4688 10.9141L14.9688 12.9141C15.2922 13.1728 15.3447 13.6453 15.0859 13.9688C14.8272 14.2922 14.3547 14.3447 14.0312 14.0859L12.75 13.0605V17C12.75 17.4142 12.4142 17.75 12 17.75C11.5858 17.75 11.25 17.4142 11.25 17V13.0605L9.96875 14.0859C9.6453 14.3447 9.17282 14.2922 8.91406 13.9688C8.65531 13.6453 8.7078 13.1728 9.03125 12.9141L11.5312 10.9141C11.5631 10.8886 11.5965 10.8662 11.6309 10.8467C11.6365 10.8435 11.6418 10.8399 11.6475 10.8369C11.6592 10.8307 11.6716 10.8259 11.6836 10.8203C11.7032 10.8112 11.7237 10.8043 11.7441 10.7969C11.7567 10.7923 11.7685 10.7861 11.7812 10.7822C11.7966 10.7775 11.8125 10.7751 11.8281 10.7715C11.8519 10.7659 11.8758 10.7601 11.9004 10.7568C11.9086 10.7557 11.9166 10.7538 11.9248 10.7529C11.9495 10.7505 11.9746 10.75 12 10.75C12.0144 10.75 12.0287 10.7511 12.043 10.752ZM13.75 6C13.75 6.69036 14.3096 7.25 15 7.25H16.1895L13.75 4.81055V6Z" fill="#FFC8FF"/>
</svg>