<svg width="24" height="24" viewBox="0 0 24 24" fill="none" xmlns="http://www.w3.org/2000/svg">
	<path d="M11.4697 3.46979C11.7626 3.1769 12.2374 3.1769 12.5303 3.46979L15.0303 5.96979C15.3232 6.26269 15.3232 6.73746 15.0303 7.03034C14.7374 7.32313 14.2626 7.32317 13.9697 7.03034L12.75 5.81061V11.2501H18.1895L16.9697 10.0303C16.6769 9.73747 16.6769 9.26269 16.9697 8.96979C17.2626 8.6769 17.7374 8.6769 18.0303 8.96979L20.5303 11.4698L20.582 11.5264C20.8223 11.821 20.8049 12.2558 20.5303 12.5303L18.0303 15.0303C17.7374 15.3231 17.2626 15.3232 16.9697 15.0303C16.6769 14.7375 16.6769 14.2627 16.9697 13.9698L18.1895 12.7501H12.75V18.1895L13.9697 16.9698C14.2626 16.6769 14.7374 16.6769 15.0303 16.9698C15.3232 17.2627 15.3232 17.7375 15.0303 18.0303L12.5303 20.5303C12.4205 20.6401 12.2853 20.7089 12.1436 20.7364C12.0489 20.7548 11.9512 20.7548 11.8565 20.7364C11.7384 20.7135 11.6245 20.6621 11.5264 20.5821L11.4697 20.5303L8.96974 18.0303C8.67688 17.7375 8.67694 17.2627 8.96974 16.9698C9.26264 16.6769 9.7374 16.6769 10.0303 16.9698L11.25 18.1895V12.7501H5.81057L6.78029 13.7198C7.07312 14.0127 7.07314 14.4875 6.78029 14.7803C6.48741 15.073 6.01259 15.0731 5.71974 14.7803L3.46974 12.5303C3.19517 12.2558 3.17775 11.821 3.41799 11.5264L3.46974 11.4698L5.96974 8.96979C6.26263 8.67691 6.7374 8.67692 7.03029 8.96979C7.32315 9.26269 7.32317 9.73746 7.03029 10.0303L5.81057 11.2501H11.25V5.81061L10.0303 7.03034C9.7374 7.32313 9.26261 7.32317 8.96974 7.03034C8.67688 6.73747 8.67694 6.26269 8.96974 5.96979L11.4697 3.46979Z" fill="#FFC8FF" fill-opacity="0.8"/>
</svg>
