<svg width="24" height="24" viewBox="0 0 24 24" fill="none" xmlns="http://www.w3.org/2000/svg">
	<path d="M19.2041 9.01074C20.2128 9.113 21 9.96435 21 11V19L20.9893 19.2041C20.8938 20.1457 20.1457 20.8938 19.2041 20.9893L19 21H11C9.96435 21 9.113 20.2128 9.01074 19.2041L9 19V11C9 9.89543 9.89543 9 11 9H19L19.2041 9.01074ZM11 10.5C10.7239 10.5 10.5 10.7239 10.5 11V19C10.5 19.2761 10.7239 19.5 11 19.5H19C19.2761 19.5 19.5 19.2761 19.5 19V11C19.5 10.7239 19.2761 10.5 19 10.5H11ZM17 16C17.5523 16 18 16.4477 18 17C18 17.5523 17.5523 18 17 18C16.4477 18 16 17.5523 16 17C16 16.4477 16.4477 16 17 16ZM13.2041 3.01074C14.1876 3.11045 14.9581 3.92239 14.9961 4.92285C14.9987 4.94821 15 4.97395 15 5V7C15 7.41421 14.6642 7.75 14.25 7.75C13.8358 7.75 13.5 7.41421 13.5 7V5C13.5 4.72386 13.2761 4.5 13 4.5H5C4.72386 4.5 4.5 4.72386 4.5 5V13C4.5 13.2761 4.72386 13.5 5 13.5H7C7.41421 13.5 7.75 13.8358 7.75 14.25C7.75 14.6642 7.41421 15 7 15H5C3.96435 15 3.113 14.2128 3.01074 13.2041L3 13V5C3 3.89543 3.89543 3 5 3H13L13.2041 3.01074ZM13 12C13.5523 12 14 12.4477 14 13C14 13.5523 13.5523 14 13 14C12.4477 14 12 13.5523 12 13C12 12.4477 12.4477 12 13 12ZM7 10C7.55228 10 8 10.4477 8 11C8 11.5523 7.55228 12 7 12C6.44772 12 6 11.5523 6 11C6 10.4477 6.44772 10 7 10ZM7 6C7.55228 6 8 6.44772 8 7C8 7.55228 7.55228 8 7 8C6.44772 8 6 7.55228 6 7C6 6.44772 6.44772 6 7 6ZM11 6C11.5523 6 12 6.44772 12 7C12 7.55228 11.5523 8 11 8C10.4477 8 10 7.55228 10 7C10 6.44772 10.4477 6 11 6Z" fill="#FFC8FF"/>
</svg>