<svg width="24" height="24" viewBox="0 0 24 24" fill="none" xmlns="http://www.w3.org/2000/svg">
	<path d="M12.1719 2.25C12.9011 2.25008 13.6006 2.54001 14.1162 3.05566L17.9443 6.88379C18.46 7.39944 18.7499 8.09889 18.75 8.82812V19C18.75 20.5188 17.5188 21.75 16 21.75H8C6.48122 21.75 5.25 20.5188 5.25 19V5C5.25 3.48122 6.48122 2.25 8 2.25H12.1719ZM8 3.75C7.30964 3.75 6.75 4.30964 6.75 5V19C6.75 19.6904 7.30964 20.25 8 20.25H16C16.6904 20.25 17.25 19.6904 17.25 19V8.82812C17.25 8.80196 17.2477 8.77597 17.2461 8.75H15C13.4812 8.75 12.25 7.51878 12.25 6V3.75293C12.2241 3.7513 12.198 3.75001 12.1719 3.75H8ZM12 10.75C12.4142 10.75 12.75 11.0858 12.75 11.5V15.4385L14.0312 14.4141C14.3547 14.1553 14.8272 14.2078 15.0859 14.5312C15.3447 14.8547 15.2922 15.3272 14.9688 15.5859L12.4688 17.5859C12.4356 17.6124 12.4001 17.6343 12.3643 17.6543C12.3603 17.6565 12.3565 17.659 12.3525 17.6611C12.3383 17.6687 12.3232 17.6741 12.3086 17.6807C12.2926 17.6879 12.2763 17.694 12.2598 17.7002C12.2538 17.7024 12.2482 17.705 12.2422 17.707C12.2343 17.7097 12.2267 17.7134 12.2188 17.7158C12.2016 17.721 12.1843 17.7246 12.167 17.7285C12.1444 17.7337 12.1219 17.7391 12.0986 17.7422C12.0933 17.7429 12.0883 17.7455 12.083 17.7461H12.0713C12.0615 17.747 12.0518 17.7465 12.042 17.7471C12.0281 17.7478 12.0141 17.75 12 17.75C11.9852 17.75 11.9706 17.7479 11.9561 17.7471C11.9469 17.7465 11.9378 17.747 11.9287 17.7461C11.9192 17.7452 11.9098 17.7435 11.9004 17.7422C11.8765 17.739 11.8532 17.7339 11.8301 17.7285C11.8141 17.7248 11.798 17.7216 11.7822 17.7168C11.7672 17.7123 11.753 17.7057 11.7383 17.7002C11.7187 17.6929 11.6994 17.6856 11.6807 17.6768C11.6713 17.6723 11.6615 17.6689 11.6523 17.6641C11.6441 17.6597 11.6361 17.655 11.6279 17.6504C11.5948 17.6314 11.562 17.6106 11.5312 17.5859L9.03125 15.5859C8.70781 15.3272 8.65531 14.8547 8.91406 14.5312C9.17282 14.2078 9.6453 14.1553 9.96875 14.4141L11.25 15.4385V11.5C11.25 11.0858 11.5858 10.75 12 10.75ZM13.75 6C13.75 6.69036 14.3096 7.25 15 7.25H16.1895L13.75 4.81055V6Z" fill="#FFC8FF"/>
</svg>